<svg width="29" height="23" viewBox="0 0 29 23" fill="none" xmlns="http://www.w3.org/2000/svg">
<path d="M1.1519 2.33231L1.97686 3.03781L14.4247 13.6829C14.4256 13.6836 14.4266 13.6843 14.4276 13.685C14.4295 13.6864 14.4316 13.688 14.4339 13.6897L14.4825 13.7059L14.5114 13.7348C14.5133 13.7355 14.5151 13.7363 14.5168 13.737C14.5202 13.7383 14.5233 13.7396 14.5263 13.7409L14.5444 13.7469H14.5689L14.6096 13.7605C14.6172 13.7609 14.6238 13.7615 14.6293 13.7619C14.6356 13.7625 14.6416 13.7631 14.647 13.7636L14.6648 13.7592H14.6881L14.7248 13.7469H14.7383C14.7475 13.7447 14.7575 13.7425 14.7681 13.7404L14.835 13.707C14.8388 13.7047 14.8422 13.7026 14.8449 13.701L1.1519 2.33231ZM1.1519 2.33231V3.4178V20.1387C1.1519 20.733 1.63884 21.2199 2.23312 21.2199H26.7669C27.3612 21.2199 27.8481 20.733 27.8481 20.1387V3.68088V2.5962L27.0234 3.3007L14.8691 13.6828M1.1519 2.33231L14.8691 13.6828M14.8691 13.6828C14.8681 13.6835 14.8671 13.6843 14.8661 13.685C14.8611 13.6887 14.8546 13.6935 14.8472 13.6994L14.8691 13.6828ZM26.7676 2.65982L27.7966 1.77983H26.4426H2.86329H1.50935L2.53832 2.65982L14.328 12.7425L14.653 13.0204L14.9779 12.7425L26.7676 2.65982ZM14.4286 13.6871C14.4271 13.6861 14.428 13.6867 14.4293 13.6876L14.4286 13.6871ZM14.5604 13.7562L14.5603 13.7562L14.5604 13.7562ZM14.4041 13.6687C14.4026 13.6677 14.4035 13.6683 14.4048 13.6692L14.4041 13.6687ZM14.66 13.7695C14.6583 13.7701 14.6603 13.7694 14.6627 13.7686L14.66 13.7695ZM14.8895 13.6687L14.8889 13.6692C14.8902 13.6683 14.8911 13.6677 14.8895 13.6687ZM2.23312 1.12793H26.7669C27.7205 1.12793 28.5 1.90745 28.5 2.86105V20.1387C28.5 21.0923 27.7205 21.8718 26.7669 21.8718H2.23312C1.27952 21.8718 0.5 21.0923 0.5 20.1387V2.86105C0.5 1.90745 1.27952 1.12793 2.23312 1.12793Z" fill="#F2603B" stroke="#F2603B"/>
</svg>
