<svg width="27" height="35" viewBox="0 0 27 35" fill="none" xmlns="http://www.w3.org/2000/svg">
<path d="M13.5 0C6.3688 0 0.567017 5.80167 0.567017 12.933C0.567017 19.8372 12.3574 34.0959 12.8592 34.6994C13.0176 34.8898 13.2524 35 13.5 35C13.7476 35 13.9825 34.8899 14.1408 34.6994C14.6428 34.0958 26.433 19.8372 26.433 12.933C26.433 5.80167 20.6314 0 13.5 0ZM13.5 32.8442C12.4546 31.5388 10.2825 28.7574 8.13302 25.5779C4.27368 19.8691 2.23368 15.4966 2.23368 12.933C2.23368 6.72067 7.2878 1.66667 13.5 1.66667C19.7122 1.66667 24.7664 6.72067 24.7664 12.933C24.7664 15.4964 22.7265 19.869 18.867 25.5779C16.7175 28.7574 14.5455 31.5388 13.5 32.8442Z" fill="#F2603B"/>
<path d="M17.7397 23.7728C17.3584 23.5151 16.8402 23.6155 16.5827 23.9969C15.4581 25.6615 14.1984 27.4062 12.8384 29.1824C12.5586 29.5479 12.6279 30.0709 12.9934 30.3506C13.1445 30.4664 13.3226 30.5224 13.4994 30.5224C13.7498 30.5224 13.9976 30.4099 14.1616 30.1956C15.5416 28.3934 16.8208 26.6218 17.9637 24.9299C18.2214 24.5485 18.1211 24.0304 17.7397 23.7728Z" fill="#F2603B"/>
<path d="M13.5 6.38867C9.73207 6.38867 6.66663 9.45412 6.66663 13.222C6.66663 16.9899 9.73207 20.0553 13.5 20.0553C17.2678 20.0553 20.3333 16.9899 20.3333 13.222C20.3333 9.45412 17.2678 6.38867 13.5 6.38867ZM13.5 18.3887C10.6511 18.3887 8.33329 16.0709 8.33329 13.222C8.33329 10.3731 10.6511 8.05534 13.5 8.05534C16.349 8.05534 18.6666 10.3731 18.6666 13.222C18.6666 16.0709 16.349 18.3887 13.5 18.3887Z" fill="#F2603B"/>
</svg>
