<svg width="27" height="27" viewBox="0 0 27 27" fill="none" xmlns="http://www.w3.org/2000/svg">
<path d="M26.7106 20.4762C25.7056 18.5761 22.2153 16.5159 22.0617 16.4258C21.6132 16.1706 21.1452 16.0354 20.7072 16.0354C20.056 16.0354 19.5229 16.3337 19.2001 16.8763C18.6895 17.487 18.0564 18.2007 17.9027 18.3114C16.7134 19.1182 15.7824 19.0266 14.7523 17.9965L9.00313 12.2468C7.97953 11.2232 7.88542 10.2807 8.68678 9.09797C8.79891 8.9433 9.51267 8.30962 10.1233 7.79857C10.5127 7.56682 10.78 7.22245 10.8972 6.8C11.0528 6.23789 10.9382 5.57668 10.5708 4.93249C10.4842 4.78433 8.423 1.29358 6.52396 0.289005C6.16958 0.101304 5.77015 0.00219727 5.36972 0.00219727C4.71001 0.00219727 4.08935 0.259474 3.62285 0.725474L2.35248 1.99534C0.343323 4.00399 -0.383959 6.28094 0.189657 8.76261C0.668171 10.8308 2.06267 13.0317 4.33511 15.3036L11.6955 22.664C14.5716 25.5401 17.3136 26.9987 19.8453 26.9987C19.8453 26.9987 19.8453 26.9987 19.8458 26.9987C21.7078 26.9987 23.4436 26.2073 25.0038 24.6472L26.2737 23.3773C27.0455 22.606 27.2207 21.4397 26.7106 20.4762Z" fill="#F2603B"/>
</svg>
